<svg id="Layer_3" enable-background="new 0 0 64 64" height="512" viewBox="0 0 64 64" width="512" xmlns="http://www.w3.org/2000/svg"><path d="m52.875 1c-1.526 0-2.921.837-3.641 2.184-3.717 6.972-6.79 14.288-9.188 21.816h-20.046c-1.654 0-3 1.346-3 3s1.346 3 3 3h18.288c-.033.125-.071.248-.104.373l-.387 1.471c-.183.692-.333 1.392-.453 2.096l-21.261-1.849c-.693-.061-1.395-.091-2.083-.091-3.859 0-7 3.141-7 7s3.141 7 7 7h11v1c0 1.654 1.346 3 3 3h1v2h-1c-1.654 0-3 1.346-3 3v1h-6c-1.654 0-3 1.346-3 3s1.346 3 3 3h26c1.654 0 3-1.346 3-3s-1.346-3-3-3h-6v-1c0-1.654-1.346-3-3-3h-1v-2h1c1.654 0 3-1.346 3-3v-1h5.944c2.249 0 4.232-1.515 4.824-3.685 1.471-5.394 2.548-10.94 3.2-16.489l.049-.42c.642-5.448 1.699-10.897 3.144-16.196l.311-1.139c.35-1.286.528-2.613.528-3.946 0-2.274-1.851-4.125-4.125-4.125zm-32.875 28c-.552 0-1-.448-1-1s.448-1 1-1h19.426c-.2.665-.391 1.332-.58 2zm26 31c0 .552-.448 1-1 1h-26c-.552 0-1-.448-1-1s.448-1 1-1h26c.552 0 1 .448 1 1zm-9-12c0 .552-.448 1-1 1h-2c-.553 0-1 .447-1 1v4c0 .553.447 1 1 1h2c.552 0 1 .448 1 1v1h-10v-1c0-.552.448-1 1-1h2c.553 0 1-.447 1-1v-4c0-.553-.447-1-1-1h-2c-.552 0-1-.448-1-1v-1h10zm17.542-39.454-.311 1.139c-1.471 5.394-2.548 10.94-3.2 16.489l-.049.42c-.642 5.448-1.699 10.897-3.144 16.196-.354 1.301-1.544 2.21-2.894 2.21h-30.944c-2.757 0-5-2.243-5-5s2.243-5 5-5c.631 0 1.273.028 1.909.083l21.18 1.842c-.059.689-.089 1.382-.089 2.075h2c0-1.904.246-3.805.73-5.647l.387-1.471c2.535-9.63 6.196-18.969 10.882-27.757.371-.693 1.09-1.125 1.876-1.125 1.172 0 2.125.953 2.125 2.125 0 1.155-.154 2.306-.458 3.421z"/></svg>